<?xml version="1.0" standalone="no"?>
<!DOCTYPE svg PUBLIC "-//W3C//DTD SVG 20010904//EN"
 "http://www.w3.org/TR/2001/REC-SVG-20010904/DTD/svg10.dtd">
<svg version="1.0" xmlns="http://www.w3.org/2000/svg"
 width="512.000000pt" height="512.000000pt" viewBox="0 0 512.000000 512.000000"
 preserveAspectRatio="xMidYMid meet">

<g transform="translate(0.000000,512.000000) scale(0.100000,-0.100000)"
fill="#000000" stroke="none">
<path d="M1975 4626 c-247 -49 -460 -190 -597 -397 -253 -384 -170 -915 187
-1199 86 -67 227 -141 330 -171 102 -30 293 -36 409 -15 378 72 671 377 727
758 67 457 -223 892 -672 1009 -106 27 -285 34 -384 15z m347 -339 c197 -72
338 -228 384 -425 20 -86 14 -222 -15 -313 -53 -167 -197 -311 -369 -371 -97
-33 -277 -33 -374 0 -226 78 -381 281 -396 519 -6 108 10 189 60 293 73 152
211 265 380 310 99 27 235 22 330 -13z"/>
<path d="M1550 2499 c-387 -37 -678 -204 -869 -500 -139 -215 -212 -502 -198
-784 11 -230 76 -396 206 -526 59 -59 95 -85 161 -117 176 -86 229 -92 938
-92 570 0 594 1 631 20 81 41 110 146 62 224 -13 20 -40 45 -62 56 -37 19 -61
20 -626 20 -342 0 -615 4 -653 10 -39 6 -95 25 -140 48 -91 45 -140 104 -173
207 -19 62 -22 91 -22 255 1 181 1 187 33 280 93 278 309 484 589 562 75 21
99 22 608 26 339 2 571 -1 644 -8 110 -10 116 -10 160 12 85 42 116 136 73
218 -30 55 -81 78 -207 90 -127 12 -1029 11 -1155 -1z"/>
<path d="M3665 2279 c-323 -64 -587 -261 -728 -544 -75 -149 -107 -288 -107
-458 1 -478 335 -888 806 -988 129 -27 336 -22 459 11 394 107 684 429 746
830 16 106 6 305 -20 405 -12 44 -46 130 -76 190 -101 208 -252 358 -460 461
-157 77 -236 96 -420 100 -82 1 -172 -2 -200 -7z m336 -328 c78 -20 152 -50
182 -73 16 -12 -27 -57 -456 -487 l-474 -473 -21 33 c-45 73 -75 188 -80 304
-5 135 11 214 70 335 33 70 57 101 132 176 75 75 106 99 176 132 47 23 112 48
145 56 88 21 237 20 326 -3z m471 -391 c57 -128 74 -308 42 -439 -9 -36 -34
-104 -56 -151 -34 -70 -57 -100 -132 -176 -75 -75 -106 -98 -176 -132 -47 -22
-118 -48 -157 -57 -145 -35 -367 -4 -482 67 l-33 21 473 474 c526 525 478 489
521 393z"/>
</g>
</svg>
